# File created by Blade
# Date/Time:  Wed Apr 08 17:12:12 2015
# Frame Rate: 120.000 fps
#------------------------------------------------------
:FULLY-SPECIFIED
:DEGREES
1206
root 7.125190 39.006847 9.325331 217.277501 -24.761764 -133.053092
Spine -34.859301 9.629714 -4.504100
Head -12.260357 18.970323 20.909050
LeftShoulder -9.488890 25.763000 18.723824
LeftArm 10.273849 44.463299 -73.078443
LeftForeArm 33.584741 -0.000000 40.097440
LeftHand -6.076398 -0.000000 -20.901280
LeftHandThumb1 -26.253704 0.000000 33.147579
RightShoulder -57.676213 -59.421859 39.492722
RightArm 34.430136 -29.220327 57.735716
RightForeArm 52.646043 -0.000000 38.836605
RightHand -11.147273 -0.000000 -0.894236
RightHandThumb1 -24.326973 -0.000000 -32.862282
LeftUpLeg -104.308065 39.156578 -38.062015
LeftLeg 23.463665 -0.000000 -0.000000
LeftFoot -16.217084 18.453199 -20.369593
LeftToeBase 2.477932 -0.000000 -0.000000
RightUpLeg -28.982522 -9.889405 -32.899582
RightLeg 155.239226 -0.000000 -0.000000
RightFoot 43.616061 16.042941 16.690388
RightToeBase -13.071074 -0.000000 0.000000
1207
root 7.123396 39.024019 9.319086 217.349329 -24.738193 -133.013062
Spine -35.084891 9.639360 -4.605519
Head -12.191641 18.956800 20.960970
LeftShoulder -9.491263 25.738831 18.767657
LeftArm 10.282097 44.431286 -73.018389
LeftForeArm 33.522992 0.000000 40.243441
LeftHand -6.111001 -0.000000 -20.794341
LeftHandThumb1 -26.253704 0.000000 33.147579
RightShoulder -57.721983 -59.484528 39.502319
RightArm 34.386868 -29.382680 57.643444
RightForeArm 52.731009 -0.000000 39.105880
RightHand -11.294984 -0.000000 -1.181549
RightHandThumb1 -24.326973 -0.000000 -32.862282
LeftUpLeg -104.322404 39.222325 -37.951726
LeftLeg 23.497770 -0.000000 -0.000000
LeftFoot -16.086490 18.278829 -20.437160
LeftToeBase 2.398911 -0.000000 -0.000000
RightUpLeg -29.077350 -9.901300 -32.980377
RightLeg 155.308240 -0.000000 -0.000000
RightFoot 43.667092 16.097338 16.762336
RightToeBase -12.826660 -0.000000 0.000000
1208
root 7.120151 39.037168 9.313205 217.384957 -24.683545 -132.979795
Spine -35.260507 9.671868 -4.709996
Head -12.160021 18.957317 20.948367
LeftShoulder -9.491161 25.729201 18.783292
LeftArm 10.297999 44.362045 -72.955479
LeftForeArm 33.527775 -0.000000 40.377798
LeftHand -6.089110 -0.000000 -20.641851
LeftHandThumb1 -26.253704 0.000000 33.147579
RightShoulder -57.773793 -59.554556 39.531825
RightArm 34.388444 -29.526588 57.525602
RightForeArm 52.851135 -0.000000 39.307155
RightHand -11.212835 -0.000000 -1.491845
RightHandThumb1 -24.326973 -0.000000 -32.862282
LeftUpLeg -104.273815 39.316781 -37.845282
LeftLeg 23.471961 -0.000000 -0.000000
LeftFoot -16.033848 18.150224 -20.526951
LeftToeBase 2.439949 -0.000000 -0.000000
RightUpLeg -29.151486 -9.875445 -33.093286
RightLeg 155.375007 -0.000000 -0.000000
RightFoot 43.731381 16.165050 16.821657
RightToeBase -12.994507 -0.000000 0.000000
1209
root 7.118251 39.050719 9.303808 217.398768 -24.631395 -132.915848
Spine -35.438694 9.705337 -4.776828
Head -12.095251 18.941037 20.939537
LeftShoulder -9.489984 25.697212 18.783534
LeftArm 10.259124 44.296160 -72.930661
LeftForeArm 33.522951 -0.000000 40.492267
LeftHand -6.163935 0.000000 -20.550172
LeftHandThumb1 -26.253704 0.000000 33.147579
RightShoulder -57.743527 -59.636435 39.473113
RightArm 34.334459 -29.670753 57.456867
RightForeArm 53.026376 -0.000000 39.512549
RightHand -11.229913 -0.000000 -1.362234
RightHandThumb1 -24.326973 -0.000000 -32.862282
LeftUpLeg -104.263486 39.408998 -37.804150
LeftLeg 23.390870 -0.000000 -0.000000
LeftFoot -15.994384 18.072460 -20.579438
LeftToeBase 2.497801 -0.000000 -0.000000
RightUpLeg -29.248354 -9.847243 -33.157340
RightLeg 155.426637 -0.000000 -0.000000
RightFoot 43.877429 16.221915 16.846533
RightToeBase -13.279809 -0.000000 0.000000
1210
root 7.116899 39.061907 9.294428 217.375110 -24.655944 -132.870098
Spine -35.550066 9.671838 -4.776566
Head -12.051805 18.961521 20.873598
LeftShoulder -9.509035 25.680475 18.758192
LeftArm 10.263807 44.217831 -72.917513
LeftForeArm 33.682831 -0.000000 40.551567
LeftHand -6.176978 -0.000000 -20.436934
LeftHandThumb1 -26.253704 0.000000 33.147579
RightShoulder -57.729061 -59.677315 39.390549
RightArm 34.395926 -29.871760 57.254034
RightForeArm 53.261131 -0.000000 39.617792
RightHand -11.268903 -0.000000 -1.399730
RightHandThumb1 -24.326973 -0.000000 -32.862282
LeftUpLeg -104.195520 39.436399 -37.764247
LeftLeg 23.253283 -0.000000 -0.000000
LeftFoot -15.956901 18.061422 -20.578705
LeftToeBase 2.609342 -0.000000 -0.000000
RightUpLeg -29.255821 -9.857816 -33.222451
RightLeg 155.452633 -0.000000 -0.000000
RightFoot 44.093478 16.261965 16.863806
RightToeBase -13.445851 -0.000000 0.000000
1211
root 7.115605 39.072264 9.284392 217.337381 -24.693972 -132.805368
Spine -35.653535 9.630543 -4.728463
Head -12.018495 19.006639 20.773375
LeftShoulder -9.545093 25.649723 18.730011
LeftArm 10.272889 44.183552 -72.932585
LeftForeArm 33.831166 0.000000 40.544591
LeftHand -6.251774 -0.000000 -20.312374
LeftHandThumb1 -26.253704 0.000000 33.147579
RightShoulder -57.711137 -59.725103 39.326592
RightArm 34.425143 -29.998603 57.092095
RightForeArm 53.393170 0.000000 39.736992
RightHand -11.406080 -0.000000 -1.532686
RightHandThumb1 -24.326973 -0.000000 -32.862282
LeftUpLeg -104.125096 39.446865 -37.730691
LeftLeg 23.065452 -0.000000 -0.000000
LeftFoot -15.942986 18.107354 -20.606929
LeftToeBase 2.715042 -0.000000 -0.000000
RightUpLeg -29.264452 -9.880166 -33.231659
RightLeg 155.480384 -0.000000 -0.000000
RightFoot 44.233855 16.277127 16.865667
RightToeBase -13.338416 -0.000000 0.000000
1212
root 7.113752 39.080563 9.272979 217.295824 -24.723036 -132.760656
Spine -35.748943 9.613335 -4.727888
Head -12.001153 18.978207 20.697006
LeftShoulder -9.563592 25.631640 18.690578
LeftArm 10.314479 44.115338 -72.910798
LeftForeArm 34.028654 0.000000 40.557469
LeftHand -6.253626 -0.000000 -20.298060
LeftHandThumb1 -26.253704 0.000000 33.147579
RightShoulder -57.680617 -59.730067 39.264214
RightArm 34.385774 -30.075922 57.017219
RightForeArm 53.487786 -0.000000 39.819555
RightHand -11.387174 -0.000000 -1.427253
RightHandThumb1 -24.326973 -0.000000 -32.862282
LeftUpLeg -104.075680 39.444965 -37.785730
LeftLeg 22.848534 -0.000000 -0.000000
LeftFoot -15.950491 18.186231 -20.618847
LeftToeBase 2.850964 -0.000000 -0.000000
RightUpLeg -29.270170 -9.871215 -33.264309
RightLeg 155.495640 -0.000000 -0.000000
RightFoot 44.376906 16.369564 16.925705
RightToeBase -13.021107 -0.000000 0.000000
